HIERARCHY
ROOT Hips
{
  OFFSET -35.4901 99.2528 17.4586
  CHANNELS 6 Xposition Yposition Zposition Zrotation Xrotation Yrotation
  JOINT LeftUpLeg
  {
    OFFSET 8.64259 1.95398 -2.38835
    CHANNELS 3 Zrotation Xrotation Yrotation
    JOINT LeftLeg
    {
      OFFSET 43.7702 0 0
      CHANNELS 3 Zrotation Xrotation Yrotation
      JOINT LeftFoot
      {
        OFFSET 40.6238 0 0
        CHANNELS 3 Zrotation Xrotation Yrotation
        JOINT LeftToeBase
        {
          OFFSET 12.7242 0 0
          CHANNELS 3 Zrotation Xrotation Yrotation
          End Site
          {
            OFFSET 0 0 0
          }
        }
      }
    }
  }
  JOINT RightUpLeg
  {
    OFFSET -8.2249 1.95398 -2.59336
    CHANNELS 3 Zrotation Xrotation Yrotation
    JOINT RightLeg
    {
      OFFSET 43.5653 0 0
      CHANNELS 3 Zrotation Xrotation Yrotation
      JOINT RightFoot
      {
        OFFSET 40.6238 0 0
        CHANNELS 3 Zrotation Xrotation Yrotation
        JOINT RightToeBase
        {
          OFFSET 12.7242 0 0
          CHANNELS 3 Zrotation Xrotation Yrotation
          End Site
          {
            OFFSET 0 0 0
          }
        }
      }
    }
  }
  JOINT Spine
  {
    OFFSET 0.165834 0.87714 6.61349
    CHANNELS 3 Zrotation Xrotation Yrotation
    JOINT Spine1
    {
      OFFSET 7.38963 1.71661e-005 0
      CHANNELS 3 Zrotation Xrotation Yrotation
      JOINT Spine2
      {
        OFFSET 11.9445 1.14441e-005 0
        CHANNELS 3 Zrotation Xrotation Yrotation
        JOINT Spine3
        {
          OFFSET 14.7254 4.19617e-005 0
          CHANNELS 3 Zrotation Xrotation Yrotation
          JOINT Spine4
          {
            OFFSET 10.9679 0 0
            CHANNELS 3 Zrotation Xrotation Yrotation
            JOINT RightShoulder
            {
              OFFSET 2.46616 -1.6653 3.69651
              CHANNELS 3 Zrotation Xrotation Yrotation
              JOINT RightArm
              {
                OFFSET 13.0012 0 0
                CHANNELS 3 Zrotation Xrotation Yrotation
                JOINT RightForeArm
                {
                  OFFSET 28.7848 1.52588e-005 0
                  CHANNELS 3 Zrotation Xrotation Yrotation
                  JOINT RightHand
                  {
                    OFFSET 26.5688 1.52588e-005 0
                    CHANNELS 3 Zrotation Xrotation Yrotation
                    End Site
                    {
                      OFFSET 0 0 0
                    }
                  }
                }
              }
            }
            JOINT LeftShoulder
            {
              OFFSET 2.38034 -1.29275 -3.7523
              CHANNELS 3 Zrotation Xrotation Yrotation
              JOINT LeftArm
              {
                OFFSET 16.3182 6.10351e-005 0
                CHANNELS 3 Zrotation Xrotation Yrotation
                JOINT LeftForeArm
                {
                  OFFSET 27.0901 0 0
                  CHANNELS 3 Zrotation Xrotation Yrotation
                  JOINT LeftHand
                  {
                    OFFSET 24.5451 1.52588e-005 0
                    CHANNELS 3 Zrotation Xrotation Yrotation
                    End Site
                    {
                      OFFSET 0 0 0
                    }
                  }
                }
              }
            }
            JOINT Neck
            {
              OFFSET 5.0226 -0.0266342 0
              CHANNELS 3 Zrotation Xrotation Yrotation
              JOINT Head
              {
                OFFSET 6.69364 2.86102e-005 0
                CHANNELS 3 Zrotation Xrotation Yrotation
                End Site
                {
                  OFFSET 0 0 0
                }
              }
            }
          }
        }
      }
    }
  }
}
MOTION
Frames:	15
Frame Time:	0.0416667
-1205.31 700.602 700.329 87.1012 27.8707 89.5782 144.026 64.6259 161.33 -5.26032 2.10036 -2.00772 -3.46178 -16.5446 -45.0146 -4.4238 19.7879 -16.1179 152.451 -28.5737 36.5684 -2.79651 -42.0492 7.99587 105.967 11.7365 -1.13861 12.9936 -15.5889 30.5948 1.66011 7.83534 -89.4232 11.1879 3.57197 0.797699 -0.478328 3.60361 0.639517 -23.0436 3.16695 1.83525 -3.03096 3.16696 1.83525 97.3221 -9.75485 -96.8268 32.544 13.4506 -15.3619 -25.1312 -29.3316 -43.9721 -19.8108 -0.35118 -8.12861 -76.6768 -40.6404 99.0106 2.16061 -18.911 -6.34029 16.7813 20.2673 -33.9 18.3137 2.65069 10.487 3.60705 2.06412 -0.132976 -29.3631 3.19698 -4.52508 
-993.158 855.676 538.825 85.8692 21.7489 92.6998 137.914 66.961 167.359 -7.4248 -5.28379 -9.21418 19.8205 -12.2337 -31.8568 3.44808 16.5451 -15.7373 142.353 -36.1334 25.2561 -6.10488 -31.9567 3.03801 103.794 22.1324 1.32424 11.4523 -14.8569 28.5387 2.30129 7.62855 -89.7007 11.6276 4.71794 0.0979553 -0.0346678 4.71766 -0.110266 -22.6339 4.46987 1.51422 -2.62124 4.46986 1.5142 97.6141 -7.95424 -96.5832 27.9114 9.95615 -10.2378 -29.6781 -29.0285 -54.0473 -22.1186 0.0417619 -11.0689 -75.5063 -41.3492 100.968 7.88478 -19.3712 7.67794 17.2669 21.9472 -29.5677 11.1704 1.32296 7.37897 0.0832736 2.52248 2.13323 -29.7013 3.20832 -3.93159 
-810.962 941.517 380.23 90.7048 18.3653 94.4755 147.901 60.7234 158.883 -6.30819 -6.58285 -12.4418 29.9924 -8.9652 -28.9936 4.81155 13.0734 -12.481 131.419 -39.3097 11.0831 -7.25757 -39.278 -0.0726387 99.6387 22.128 4.56968 14.0894 -14.339 28.8362 2.6497 7.706 -90.4272 11.503 5.07208 -1.36829 -0.158954 5.00695 -1.5907 -22.7741 5.24817 0.223519 -2.76144 5.24819 0.223515 97.9058 -7.72338 -95.7466 25.7649 7.02693 -3.8589 -32.4145 -27.3319 -61.8205 -22.5115 0.289997 -13.0394 -74.3049 -40.3263 103.068 7.26356 -19.5927 19.1938 15.9251 16.9185 -23.8341 7.84997 1.07713 8.778 -4.56345 3.17987 2.98971 -30.6623 3.56857 -2.56255 
-639.319 893.896 252.855 92.2078 17.5181 96.418 159.567 55.6052 147.565 -6.59604 -4.63469 -10.9091 25.4676 -9.81307 -30.2945 1.60358 14.7635 -13.2834 124.628 -39.5908 -1.45259 -6.42268 -36.4358 -1.13922 101.082 21.7292 4.20199 14.6324 -14.0968 28.6459 2.71218 7.40371 -90.8632 12.1234 4.98355 -2.27248 0.459689 4.87872 -2.48998 -22.15 5.43553 -0.665793 -2.13731 5.43551 -0.665807 97.9928 -8.95667 -95.0676 27.9997 5.80807 6.31126 -30.5807 -23.9779 -64.4437 -21.8417 0.294262 -12.6941 -73.481 -39.8351 104.514 5.23427 -20.532 25.1663 16.2813 13.9104 -21.4004 10.5928 1.78219 11.9999 -5.41713 3.03488 2.41138 -31.7344 3.46427 -2.30616 
-414.207 839.505 108.597 91.6379 21.5429 92.2226 172.459 54.5336 127.328 -5.62427 6.38893 -2.72771 11.8628 -19.0679 -37.8716 -4.69212 15.7712 -12.3633 113.901 -40.9398 -13.2577 -3.83246 -27.4356 -1.02738 95.8072 17.1194 6.04573 13.3814 -15.155 29.9786 2.05381 7.53362 -90.1867 11.8439 3.99766 -0.77047 0.179081 3.95989 -0.94593 -22.4065 4.0439 0.468519 -2.39384 4.04391 0.468519 98.1656 -10.4873 -94.1252 39.033 5.49028 11.885 -34.2123 -29.8749 -63.2282 -20.5073 -0.352785 -9.96344 -73.9058 -43.4907 103.505 -3.97726 -20.0149 18.3961 13.9724 11.1992 -18.9937 11.1704 1.92184 12.452 -1.61245 3.39703 2.46455 -29.4665 3.71465 -2.46837 
-137.983 752.522 -111.09 93.1771 25.1915 83.2695 -178.955 45.1026 115.767 -4.64102 5.54627 -2.81452 19.1492 -23.7428 -41.7469 -4.91636 16.0954 -12.6002 105.884 -43.7529 -23.3633 -1.53326 -29.0611 -0.433408 99.1285 11.9162 6.61564 10.9822 -16.8374 31.8006 1.04245 7.97223 -88.9772 10.8962 2.54799 1.78182 -0.773353 2.6239 1.66792 -23.3111 1.89489 2.46518 -3.29849 1.89489 2.46517 97.8681 -14.5491 -93.8022 53.1695 2.66191 7.95007 -24.6009 -37.9464 -48.572 -18.3727 -1.10447 -4.34698 -74.1487 -48.6635 102.765 -15.6123 -12.451 -1.51742 8.07598 12.4173 -21.4538 10.5529 1.71152 11.4433 -1.25772 5.23606 1.83386 -30.5712 5.71676 -2.68198 
180.924 633.125 -375.274 93.7832 28.5431 84.746 -178.73 25.447 122.374 -5.46722 9.59563 -3.58496 38.5016 -33.0527 -41.7282 -4.30042 16.0172 -12.7046 131.251 -44.5615 -3.85364 -1.74992 -25.153 -0.351652 105.942 25.7743 5.46386 13.5744 -16.1762 31.969 0.209168 7.98462 -89.1623 10.8978 0.803803 1.58988 -0.773973 0.872982 1.55298 -23.301 0.288938 1.75789 -3.28838 0.288938 1.75789 97.5351 -15.633 -94.432 60.7219 -1.06098 6.235 -12.8723 -45.263 -34.2575 -16.0848 -1.27403 -2.8033 -74.8171 -50.8372 101.628 -21.635 -5.03681 -17.2076 15.3146 26.5624 -37.7153 11.3419 1.48093 8.6396 -2.30676 7.1126 2.21032 -30.5109 7.37566 -1.85232 
526.88 555.42 -667.735 95.1654 35.0915 87.1745 -167.296 -18.5821 133.139 -4.15166 20.0504 -6.42504 90.5089 -32.7852 -23.1258 2.20442 15.6196 -14.3481 -174.318 14.8896 33.3374 -4.53846 -15.8554 -0.153467 47.5503 34.1105 24.2881 12.3789 -16.5015 31.9257 -0.638175 8.29747 -89.6655 10.2825 -1.1185 0.760555 -1.38817 -1.08398 0.809048 -23.9266 -1.29537 0.389203 -3.91394 -1.29538 0.389197 97.342 -16.6464 -94.6725 63.3876 -0.583955 8.15501 -7.29924 -45.3255 -28.2917 -15.7496 -1.2578 -2.6091 -76.4194 -47.8562 99.2832 -20.7206 5.11085 -33.9795 15.5034 26.8939 -47.1677 12.1839 1.01198 4.24649 -0.955235 7.87569 1.33369 -28.7065 7.92733 -0.773276 
839.85 550.399 -978.369 95.6954 41.9549 89.4815 -148.258 -46.0295 145.252 -0.660605 31.1855 -12.537 115.057 -9.04545 -15.1929 3.78729 18.9886 -18.4141 -173.597 66.2574 61.5684 -6.81231 -13.4707 4.69538 30.3296 13.6362 12.0545 12.8505 -15.0875 29.5588 -1.27544 8.45534 -90.1531 9.96207 -2.61153 -0.0891147 -1.70626 -2.6129 0.0259774 -24.2606 -2.46392 -0.870345 -4.24794 -2.46392 -0.870348 97.2902 -16.5036 -94.8434 64.353 0.884019 10.5499 -3.15863 -42.6961 -23.5535 -14.3406 -1.11003 -3.03408 -78.2376 -42.4402 96.3823 -20.0902 9.12413 -49.7252 17.7441 24.9304 -53.1402 9.3436 0.161484 -1.73766 0.0221604 7.2667 -0.252326 -28.0534 7.53812 -0.886662 
1030.91 558.326 -1194.79 97.4317 47.1445 88.1285 -137.008 -49.3879 154.957 0.421263 38.3489 -12.6237 118.552 -1.11123 -15.6469 7.40033 19.9422 -20.9086 -176.767 74.8071 62.259 -3.62418 -12.9877 13.982 33.807 9.16348 4.20464 14.5887 -12.856 26.3268 -1.83819 8.55534 -90.2549 9.76182 -3.77958 -0.206455 -1.90363 -3.785 -0.0396722 -24.4787 -3.54256 -1.33424 -4.46602 -3.54256 -1.33424 97.3445 -16.8026 -94.6294 63.3452 0.975888 11.3942 -3.1029 -44.4485 -23.0167 -11.8166 -0.975485 -4.69795 -79.1169 -38.4806 94.7911 -19.0642 8.63762 -62.4533 21.5425 22.1096 -59.3579 11.7414 0.00192534 -3.66631 1.71934 6.30369 -1.43662 -27.8024 6.57016 -0.136148 
1151.15 496.216 -1303.38 100.371 51.5307 85.2992 -129.718 -48.1318 164.259 -3.25044 44.9545 -6.76179 114.269 -2.9014 -13.8323 18.4508 21.5133 -28.4425 -175.458 69.4528 60.7805 -5.06543 -12.1892 7.42402 17.8605 14.4788 9.92439 13.9204 -14.8754 29.7211 -2.21694 8.53806 -90.4491 9.79182 -4.62229 -0.522857 -1.87096 -4.64081 -0.318481 -24.4634 -4.25114 -1.89031 -4.45074 -4.25112 -1.8903 97.5789 -18.0456 -93.7268 61.7962 3.63062 10.3004 -4.31832 -44.1636 -20.1636 -12.8568 -1.07494 -3.07612 -79.0287 -40.2534 94.9993 -21.3913 9.40117 -65.8506 26.3906 17.6621 -69.3034 14.7131 -0.0128207 -3.87933 3.65919 5.5147 0.272545 -27.4868 5.44806 0.0566455 
1257.78 491.389 -1400.2 100.007 50.5505 87.7174 -122.811 -49.2032 169.123 -6.79638 42.7301 -0.382344 98.613 -10.3745 -16.6922 12.1553 22.5456 -26.2083 178.631 65.9489 69.5473 -5.39755 -16.0345 2.48314 12.1766 18.0021 14.9315 9.15929 -16.3958 30.1197 -1.68633 8.3733 -91.0696 10.0965 -3.84754 -1.80177 -1.56975 -3.92308 -1.6305 -24.1276 -3.12829 -2.87528 -4.11495 -3.12826 -2.87529 96.9567 -17.9404 -95.3141 62.3019 7.32719 5.01302 -0.617317 -31.3622 -11.2525 -17.4328 -1.75206 4.04225 -79.2616 -42.791 94.6938 -24.3273 14.5859 -58.448 26.8294 13.8089 -78.8196 17.3605 -0.254924 -5.31509 5.62196 4.18271 2.78135 -26.3713 3.53379 0.480204 
1412.75 511.403 -1554.4 103.351 49.0929 87.7846 -115.875 -48.3668 178.354 -3.76689 38.5912 0.277408 79.4585 -20.245 -22.5054 3.71647 20.0424 -19.45 176.06 56.194 70.976 -4.98755 -17.1249 2.30916 18.9691 20.8224 15.9293 10.8505 -16.0638 30.3716 -1.05634 8.61793 -91.5029 9.59648 -2.78414 -2.76451 -2.07417 -2.90305 -2.63934 -24.5979 -1.82514 -3.47289 -4.58527 -1.82515 -3.47289 96.3239 -18.5017 -96.7382 62.3116 5.7429 -4.93123 -0.889954 -24.2855 -10.4912 -21.3827 -2.31806 6.20562 -79.2862 -46.8309 94.7884 -25.8252 20.6492 -44.8125 33.8342 18.8634 -82.0811 13.2064 -0.16625 -4.95581 6.07733 2.7491 3.43161 -25.8505 2.06614 0.0123712 
1634.16 535.953 -1789.13 103.984 49.7764 85.2046 -131.889 -43.2522 171.412 -2.78161 33.5108 0.0932977 87.1005 -31.5152 -23.0806 0.94138 20.5224 -18.8614 178.117 37.9337 59.5853 -5.56931 -18.1682 2.92848 37.6868 27.6702 14.0577 11.7195 -15.9685 30.6363 -0.69696 8.60735 -91.1824 9.63599 -1.92348 -2.19379 -2.03525 -2.01814 -2.10703 -24.5606 -1.17553 -2.67018 -4.54793 -1.1755 -2.67017 96.1677 -18.9231 -97.0005 60.8589 1.90498 -12.9226 -6.74365 -28.3302 -22.2829 -24.1211 -2.17635 3.53899 -78.7595 -49.2934 95.6728 -27.5545 21.0538 -30.0442 33.6429 31.1643 -73.6607 4.12838 -0.107106 -4.20073 6.01101 0.730921 1.82464 -25.3747 0.588006 -1.02994 
1873.62 540.566 -2034.52 103.184 46.7877 83.0953 -168.414 -9.70537 151.314 -3.62454 21.6853 -0.366857 49.6114 -44.3511 -48.4765 -0.627032 18.8093 -16.5604 172.355 5.71537 48.2871 -5.82806 -19.8188 4.04415 76.9084 32.1906 4.04802 12.9526 -15.9655 31.2627 -0.077483 8.47204 -90.7044 9.92698 -0.474324 -1.36175 -1.74457 -0.53379 -1.33957 -24.2741 -0.0431811 -1.44134 -4.26148 -0.0431811 -1.44134 96.0327 -18.3355 -97.5062 56.8429 -1.55587 -19.1253 -17.4419 -34.6759 -37.8945 -26.2471 -1.82496 -0.272871 -78.1813 -50.2926 96.5685 -28.9225 11.0895 -17.9305 12.0551 35.4212 -42.8931 8.73558 0.510798 1.51571 5.79878 -0.440974 1.14463 -24.8627 -0.22834 -2.1236 
